<svg width="359" height="359" viewBox="0 0 359 359" fill="none" xmlns="http://www.w3.org/2000/svg">
<path d="M359 179.541C359 152.836 329.217 127.528 283.556 111.833C294.093 59.5731 289.41 17.9952 268.774 4.68368C264.018 1.56122 258.457 0.0821686 252.383 0.0821686V18.406C255.749 18.406 258.457 19.1456 260.725 20.5425C270.677 26.9517 274.994 51.3561 271.628 82.745C270.823 90.469 269.506 98.6038 267.896 106.903C253.554 102.959 237.894 99.9185 221.43 97.9464C211.551 82.745 201.306 68.9405 190.989 56.8615C214.844 31.9641 237.236 18.3239 252.456 18.3239V0C232.333 0 205.99 16.1053 179.354 44.043C152.718 16.2696 126.374 0.328681 106.251 0.328681V18.6525C121.398 18.6525 143.863 32.2106 167.719 56.9437C157.474 69.0227 147.23 82.745 137.497 97.9464C120.959 99.9185 105.3 102.959 90.9574 106.985C89.2744 98.7681 88.0304 90.7977 87.1523 83.1559C83.713 51.767 87.9572 27.3626 97.8359 20.8711C100.031 19.3921 102.885 18.7347 106.251 18.7347V0.410849C100.104 0.410849 94.543 1.8899 89.7134 5.01236C69.151 18.3239 64.541 59.8196 75.1514 111.915C29.6362 127.692 0 152.918 0 179.541C0 206.246 29.7825 231.555 75.4441 247.249C64.9068 299.509 69.5901 341.087 90.2256 354.398C94.9821 357.521 100.543 359 106.69 359C126.814 359 153.157 342.895 179.793 314.957C206.429 342.73 232.772 358.671 252.895 358.671C259.042 358.671 264.603 357.192 269.433 354.07C289.995 340.758 294.605 299.263 283.995 247.167C329.364 231.472 359 206.164 359 179.541ZM263.725 124.734C261.018 135.334 257.652 146.262 253.847 157.191C250.846 150.617 247.7 144.044 244.26 137.47C240.894 130.897 237.309 124.487 233.723 118.242C244.114 119.968 254.139 122.104 263.725 124.734ZM230.211 212.245C224.503 223.338 218.649 233.855 212.575 243.634C201.672 244.702 190.623 245.277 179.5 245.277C168.45 245.277 157.401 244.702 146.571 243.716C140.497 233.938 134.57 223.502 128.862 212.491C123.301 201.727 118.252 190.798 113.642 179.788C118.179 168.777 123.301 157.766 128.789 147.002C134.497 135.909 140.351 125.391 146.425 115.613C157.328 114.545 168.377 113.97 179.5 113.97C190.55 113.97 201.599 114.545 212.429 115.531C218.503 125.309 224.43 135.745 230.138 146.755C235.699 157.52 240.748 168.448 245.358 179.459C240.748 190.47 235.699 201.48 230.211 212.245ZM253.847 201.563C257.798 212.573 261.164 223.584 263.945 234.266C254.359 236.896 244.261 239.114 233.796 240.84C237.382 234.513 240.968 228.021 244.334 221.365C247.7 214.792 250.846 208.136 253.847 201.563ZM179.646 289.238C172.841 281.349 166.036 272.557 159.304 262.943C165.889 263.272 172.621 263.519 179.427 263.519C186.305 263.519 193.111 263.354 199.77 262.943C193.184 272.557 186.379 281.349 179.646 289.238ZM125.204 240.84C114.813 239.114 104.788 236.978 95.2016 234.348C97.9091 223.748 101.275 212.82 105.08 201.891C108.081 208.465 111.227 215.038 114.666 221.612C118.106 228.186 121.618 234.595 125.204 240.84ZM179.28 69.8444C186.086 77.7327 192.891 86.5248 199.623 96.1387C193.038 95.81 186.305 95.5635 179.5 95.5635C172.621 95.5635 165.816 95.7279 159.157 96.1387C165.743 86.5248 172.548 77.7327 179.28 69.8444ZM125.13 118.242C121.545 124.569 117.959 131.061 114.593 137.717C111.227 144.29 108.081 150.864 105.08 157.437C101.129 146.427 97.7627 135.416 94.9821 124.734C104.568 122.187 114.666 119.968 125.13 118.242ZM58.9065 221.119C33.0023 208.711 16.245 192.442 16.245 179.541C16.245 166.64 33.0023 150.289 58.9065 137.963C65.1996 134.923 72.0781 132.211 79.1761 129.664C83.3471 145.769 88.8353 162.532 95.6406 179.705C88.9085 196.797 83.4935 213.477 79.3957 229.5C72.1513 226.953 65.2727 224.159 58.9065 221.119ZM98.275 338.54C88.3231 332.13 84.0057 307.726 87.3718 276.337C88.1767 268.613 89.4939 260.478 91.1038 252.179C105.446 256.123 121.106 259.164 137.57 261.136C147.449 276.337 157.694 290.142 168.011 302.221C144.156 327.118 121.764 340.758 106.544 340.758C103.251 340.676 100.47 339.937 98.275 338.54ZM271.848 275.926C275.287 307.315 271.043 331.72 261.164 338.211C258.969 339.69 256.115 340.347 252.749 340.347C237.601 340.347 215.137 326.789 191.281 302.056C201.526 289.977 211.771 276.255 221.503 261.054C238.041 259.081 253.7 256.041 268.043 252.015C269.726 260.314 271.043 268.284 271.848 275.926ZM300.02 221.119C293.727 224.159 286.849 226.871 279.751 229.418C275.58 213.313 270.092 196.55 263.286 179.377C270.018 162.285 275.433 145.605 279.531 129.582C286.776 132.129 293.654 134.923 300.094 137.963C325.998 150.371 342.755 166.64 342.755 179.541C342.682 192.442 325.925 208.794 300.02 221.119Z" fill="#EFEFEF"/>
<path d="M179.5 217C198.002 217 213 200.211 213 179.5C213 158.789 198.002 142 179.5 142C160.998 142 146 158.789 146 179.5C146 200.211 160.998 217 179.5 217Z" fill="#EFEFEF"/>
</svg>
